<?xml version="1.0" encoding="utf-8"?>
<!-- Generator: Adobe Illustrator 25.2.3, SVG Export Plug-In . SVG Version: 6.00 Build 0)  -->
<svg version="1.1" id="Layer_1" xmlns="http://www.w3.org/2000/svg" xmlns:xlink="http://www.w3.org/1999/xlink" x="0px" y="0px"
	 viewBox="0 0 150 150" style="enable-background:new 0 0 150 150;" xml:space="preserve">
<g>
	<path d="M72.1,13.4c24.6,0,42.9,5.1,54.8,15.2c11.9,10.1,17.9,25.6,17.9,46.4c0,20.9-6,36.4-17.9,46.5
		c-12,10.1-30.2,15.2-54.8,15.2h-67v-17.5h6.2c4.1,0,6.7-0.5,8-1.4c1.3-1,1.9-3.7,1.9-8.3v-0.9V41.3c0-4.8-0.6-7.7-1.8-8.8
		c-1.2-1.1-4-1.7-8.3-1.7h-6V13.4H72.1z M62.4,118.6h9.7c8.9,0,15.3-3.3,19.2-10c3.9-6.7,5.8-17.9,5.8-33.6
		c0-15.7-1.9-26.9-5.8-33.7C87.4,34.5,81,31.2,72.1,31.2h-9.7V118.6z"/>
</g>
</svg>
